<mxfile host="app.diagrams.net" agent="Mozilla/5.0 (Windows NT 10.0; Win64; x64) AppleWebKit/537.36 (KHTML, like Gecko) Chrome/131.0.0.0 Safari/537.36" version="25.0.3" pages="2">
  <diagram id="nZ9ibvS9bY2jqzzhafT0" name="Домашнее 1">
    <mxGraphModel dx="1300" dy="1305" grid="0" gridSize="10" guides="1" tooltips="1" connect="1" arrows="1" fold="1" page="1" pageScale="1" pageWidth="827" pageHeight="1169" math="0" shadow="0">
      <root>
        <mxCell id="0" />
        <mxCell id="1" parent="0" />
        <mxCell id="tItsWk1MYwFzCwZot_ue-1" value="" style="shape=table;childLayout=tableLayout;startSize=40;collapsible=0;recursiveResize=0;expand=0;fontSize=16;fontStyle=1;fillColor=#0000CC;fontColor=#ffffff;strokeColor=#0000CC;" vertex="1" parent="1">
          <mxGeometry x="330" y="190" width="1110" height="1312.6305981804342" as="geometry" />
        </mxCell>
        <mxCell id="tItsWk1MYwFzCwZot_ue-2" value="" style="shape=tableRow;horizontal=0;swimlaneHead=0;swimlaneBody=0;top=0;left=0;strokeColor=inherit;bottom=0;right=0;dropTarget=0;fontStyle=1;fillColor=none;points=[[0,0.5],[1,0.5]];portConstraint=eastwest;startSize=40;collapsible=0;recursiveResize=0;expand=0;fontSize=16;" vertex="1" parent="tItsWk1MYwFzCwZot_ue-1">
          <mxGeometry y="40" width="1110" height="323" as="geometry" />
        </mxCell>
        <mxCell id="tItsWk1MYwFzCwZot_ue-3" value="Руководитель" style="swimlane;swimlaneHead=0;swimlaneBody=0;fontStyle=1;strokeColor=inherit;connectable=0;fillColor=none;startSize=40;collapsible=0;recursiveResize=0;expand=0;fontSize=16;" vertex="1" parent="tItsWk1MYwFzCwZot_ue-2">
          <mxGeometry x="40" width="357" height="323" as="geometry">
            <mxRectangle width="357" height="323" as="alternateBounds" />
          </mxGeometry>
        </mxCell>
        <mxCell id="tItsWk1MYwFzCwZot_ue-4" style="edgeStyle=orthogonalEdgeStyle;rounded=0;orthogonalLoop=1;jettySize=auto;html=1;exitX=0.5;exitY=1;exitDx=0;exitDy=0;entryX=0.5;entryY=0;entryDx=0;entryDy=0;" edge="1" parent="tItsWk1MYwFzCwZot_ue-3" source="tItsWk1MYwFzCwZot_ue-5" target="tItsWk1MYwFzCwZot_ue-6">
          <mxGeometry relative="1" as="geometry" />
        </mxCell>
        <mxCell id="tItsWk1MYwFzCwZot_ue-5" value="" style="ellipse;html=1;shape=endState;fillColor=#FF0000;fontColor=#ffffff;strokeColor=#FF0000;" vertex="1" parent="tItsWk1MYwFzCwZot_ue-3">
          <mxGeometry x="150.5" y="61" width="30" height="30" as="geometry" />
        </mxCell>
        <mxCell id="tItsWk1MYwFzCwZot_ue-6" value="&lt;b&gt;&lt;font style=&quot;font-size: 14px;&quot;&gt;Создание заявки на вакансию&lt;/font&gt;&lt;/b&gt;" style="rounded=1;whiteSpace=wrap;html=1;" vertex="1" parent="tItsWk1MYwFzCwZot_ue-3">
          <mxGeometry x="92" y="149" width="147" height="67" as="geometry" />
        </mxCell>
        <mxCell id="tItsWk1MYwFzCwZot_ue-7" value="HR-отдел" style="swimlane;swimlaneHead=0;swimlaneBody=0;fontStyle=1;strokeColor=inherit;connectable=0;fillColor=none;startSize=40;collapsible=0;recursiveResize=0;expand=0;fontSize=16;" vertex="1" parent="tItsWk1MYwFzCwZot_ue-2">
          <mxGeometry x="397" width="436" height="323" as="geometry">
            <mxRectangle width="436" height="323" as="alternateBounds" />
          </mxGeometry>
        </mxCell>
        <mxCell id="tItsWk1MYwFzCwZot_ue-8" style="edgeStyle=orthogonalEdgeStyle;rounded=0;orthogonalLoop=1;jettySize=auto;html=1;exitX=0.5;exitY=1;exitDx=0;exitDy=0;entryX=0.5;entryY=0;entryDx=0;entryDy=0;" edge="1" parent="tItsWk1MYwFzCwZot_ue-7" source="tItsWk1MYwFzCwZot_ue-12" target="tItsWk1MYwFzCwZot_ue-14">
          <mxGeometry relative="1" as="geometry" />
        </mxCell>
        <mxCell id="tItsWk1MYwFzCwZot_ue-9" value="ДА" style="edgeLabel;html=1;align=center;verticalAlign=middle;resizable=0;points=[];" vertex="1" connectable="0" parent="tItsWk1MYwFzCwZot_ue-8">
          <mxGeometry x="-0.1965" relative="1" as="geometry">
            <mxPoint y="-1" as="offset" />
          </mxGeometry>
        </mxCell>
        <mxCell id="tItsWk1MYwFzCwZot_ue-10" style="edgeStyle=orthogonalEdgeStyle;rounded=0;orthogonalLoop=1;jettySize=auto;html=1;exitX=1;exitY=0.5;exitDx=0;exitDy=0;entryX=0.5;entryY=0;entryDx=0;entryDy=0;" edge="1" parent="tItsWk1MYwFzCwZot_ue-7" source="tItsWk1MYwFzCwZot_ue-12" target="tItsWk1MYwFzCwZot_ue-15">
          <mxGeometry relative="1" as="geometry" />
        </mxCell>
        <mxCell id="tItsWk1MYwFzCwZot_ue-11" value="НЕТ" style="edgeLabel;html=1;align=center;verticalAlign=middle;resizable=0;points=[];" vertex="1" connectable="0" parent="tItsWk1MYwFzCwZot_ue-10">
          <mxGeometry x="0.7066" y="1" relative="1" as="geometry">
            <mxPoint as="offset" />
          </mxGeometry>
        </mxCell>
        <mxCell id="tItsWk1MYwFzCwZot_ue-12" value="" style="rhombus;fillColor=#FF0000;strokeColor=#FF0000;fontColor=#ffffff;" vertex="1" parent="tItsWk1MYwFzCwZot_ue-7">
          <mxGeometry x="111" y="117.5" width="30" height="30" as="geometry" />
        </mxCell>
        <mxCell id="tItsWk1MYwFzCwZot_ue-13" value="Заявка соответствует требованиям?" style="text;html=1;align=center;verticalAlign=middle;resizable=0;points=[];autosize=1;strokeColor=none;fillColor=none;" vertex="1" parent="tItsWk1MYwFzCwZot_ue-7">
          <mxGeometry x="26" y="88" width="221" height="26" as="geometry" />
        </mxCell>
        <mxCell id="tItsWk1MYwFzCwZot_ue-14" value="&lt;b&gt;&lt;font style=&quot;font-size: 14px;&quot;&gt;Утверждение заявки&lt;/font&gt;&lt;/b&gt;" style="rounded=1;whiteSpace=wrap;html=1;" vertex="1" parent="tItsWk1MYwFzCwZot_ue-7">
          <mxGeometry x="52.5" y="210" width="147" height="67" as="geometry" />
        </mxCell>
        <mxCell id="tItsWk1MYwFzCwZot_ue-15" value="&lt;font style=&quot;font-size: 14px;&quot;&gt;&lt;b&gt;Уведомление руководителя&lt;/b&gt;&lt;/font&gt;" style="rounded=1;whiteSpace=wrap;html=1;" vertex="1" parent="tItsWk1MYwFzCwZot_ue-7">
          <mxGeometry x="245" y="210" width="147" height="67" as="geometry" />
        </mxCell>
        <mxCell id="tItsWk1MYwFzCwZot_ue-16" value="кандидат" style="swimlane;swimlaneHead=0;swimlaneBody=0;fontStyle=1;strokeColor=inherit;connectable=0;fillColor=none;startSize=40;collapsible=0;recursiveResize=0;expand=0;fontSize=16;" vertex="1" parent="tItsWk1MYwFzCwZot_ue-2">
          <mxGeometry x="833" width="277" height="323" as="geometry">
            <mxRectangle width="277" height="323" as="alternateBounds" />
          </mxGeometry>
        </mxCell>
        <mxCell id="tItsWk1MYwFzCwZot_ue-17" style="edgeStyle=orthogonalEdgeStyle;rounded=0;orthogonalLoop=1;jettySize=auto;html=1;exitX=1;exitY=0.5;exitDx=0;exitDy=0;entryX=0;entryY=0.5;entryDx=0;entryDy=0;" edge="1" parent="tItsWk1MYwFzCwZot_ue-2" source="tItsWk1MYwFzCwZot_ue-6" target="tItsWk1MYwFzCwZot_ue-12">
          <mxGeometry relative="1" as="geometry" />
        </mxCell>
        <mxCell id="tItsWk1MYwFzCwZot_ue-18" style="edgeStyle=orthogonalEdgeStyle;rounded=0;orthogonalLoop=1;jettySize=auto;html=1;exitX=0.5;exitY=1;exitDx=0;exitDy=0;entryX=0.5;entryY=1;entryDx=0;entryDy=0;" edge="1" parent="tItsWk1MYwFzCwZot_ue-2" source="tItsWk1MYwFzCwZot_ue-15" target="tItsWk1MYwFzCwZot_ue-6">
          <mxGeometry relative="1" as="geometry" />
        </mxCell>
        <mxCell id="tItsWk1MYwFzCwZot_ue-19" value="ПОВТОР" style="edgeLabel;html=1;align=center;verticalAlign=middle;resizable=0;points=[];" vertex="1" connectable="0" parent="tItsWk1MYwFzCwZot_ue-18">
          <mxGeometry x="0.853" relative="1" as="geometry">
            <mxPoint as="offset" />
          </mxGeometry>
        </mxCell>
        <mxCell id="tItsWk1MYwFzCwZot_ue-20" value="" style="shape=tableRow;horizontal=0;swimlaneHead=0;swimlaneBody=0;top=0;left=0;strokeColor=inherit;bottom=0;right=0;dropTarget=0;fontStyle=1;fillColor=none;points=[[0,0.5],[1,0.5]];portConstraint=eastwest;startSize=40;collapsible=0;recursiveResize=0;expand=0;fontSize=16;" vertex="1" parent="tItsWk1MYwFzCwZot_ue-1">
          <mxGeometry y="363" width="1110" height="456" as="geometry" />
        </mxCell>
        <mxCell id="tItsWk1MYwFzCwZot_ue-21" value="" style="swimlane;swimlaneHead=0;swimlaneBody=0;fontStyle=0;connectable=0;strokeColor=inherit;fillColor=none;startSize=0;collapsible=0;recursiveResize=0;expand=0;fontSize=16;" vertex="1" parent="tItsWk1MYwFzCwZot_ue-20">
          <mxGeometry x="40" width="357" height="456" as="geometry">
            <mxRectangle width="357" height="456" as="alternateBounds" />
          </mxGeometry>
        </mxCell>
        <mxCell id="tItsWk1MYwFzCwZot_ue-22" value="&lt;font style=&quot;font-size: 14px;&quot;&gt;&lt;b&gt;Техническое собеседование&lt;/b&gt;&lt;/font&gt;" style="rounded=1;whiteSpace=wrap;html=1;" vertex="1" parent="tItsWk1MYwFzCwZot_ue-21">
          <mxGeometry x="92" y="194" width="147" height="67" as="geometry" />
        </mxCell>
        <mxCell id="tItsWk1MYwFzCwZot_ue-23" value="" style="swimlane;swimlaneHead=0;swimlaneBody=0;fontStyle=0;connectable=0;strokeColor=inherit;fillColor=none;startSize=0;collapsible=0;recursiveResize=0;expand=0;fontSize=16;" vertex="1" parent="tItsWk1MYwFzCwZot_ue-20">
          <mxGeometry x="397" width="436" height="456" as="geometry">
            <mxRectangle width="436" height="456" as="alternateBounds" />
          </mxGeometry>
        </mxCell>
        <mxCell id="tItsWk1MYwFzCwZot_ue-24" value="&lt;font style=&quot;font-size: 14px;&quot;&gt;&lt;b&gt;Публикация вакансии&lt;/b&gt;&lt;/font&gt;" style="rounded=1;whiteSpace=wrap;html=1;" vertex="1" parent="tItsWk1MYwFzCwZot_ue-23">
          <mxGeometry x="52.5" y="38" width="147" height="67" as="geometry" />
        </mxCell>
        <mxCell id="tItsWk1MYwFzCwZot_ue-25" value="&lt;font style=&quot;font-size: 14px;&quot;&gt;&lt;b&gt;Проверка анкет кандидатов&lt;/b&gt;&lt;/font&gt;" style="rounded=1;whiteSpace=wrap;html=1;" vertex="1" parent="tItsWk1MYwFzCwZot_ue-23">
          <mxGeometry x="52.5" y="147" width="147" height="67" as="geometry" />
        </mxCell>
        <mxCell id="tItsWk1MYwFzCwZot_ue-26" value="&lt;font style=&quot;font-size: 14px;&quot;&gt;&lt;b&gt;Приглашение на собеседования&lt;/b&gt;&lt;/font&gt;" style="rounded=1;whiteSpace=wrap;html=1;" vertex="1" parent="tItsWk1MYwFzCwZot_ue-23">
          <mxGeometry x="14" y="352" width="147" height="67" as="geometry" />
        </mxCell>
        <mxCell id="tItsWk1MYwFzCwZot_ue-27" value="&lt;font style=&quot;font-size: 14px;&quot;&gt;&lt;b&gt;&amp;nbsp;Отклонение анкет&lt;/b&gt;&lt;/font&gt;" style="rounded=1;whiteSpace=wrap;html=1;" vertex="1" parent="tItsWk1MYwFzCwZot_ue-23">
          <mxGeometry x="225" y="352" width="147" height="67" as="geometry" />
        </mxCell>
        <mxCell id="tItsWk1MYwFzCwZot_ue-28" value="" style="swimlane;swimlaneHead=0;swimlaneBody=0;fontStyle=0;connectable=0;strokeColor=inherit;fillColor=none;startSize=0;collapsible=0;recursiveResize=0;expand=0;fontSize=16;" vertex="1" parent="tItsWk1MYwFzCwZot_ue-20">
          <mxGeometry x="833" width="277" height="456" as="geometry">
            <mxRectangle width="277" height="456" as="alternateBounds" />
          </mxGeometry>
        </mxCell>
        <mxCell id="tItsWk1MYwFzCwZot_ue-29" value="&lt;font style=&quot;font-size: 14px;&quot;&gt;&lt;b&gt;Подача заявок кандидатами&lt;/b&gt;&lt;/font&gt;" style="rounded=1;whiteSpace=wrap;html=1;" vertex="1" parent="tItsWk1MYwFzCwZot_ue-28">
          <mxGeometry x="39" y="37.65" width="147" height="67" as="geometry" />
        </mxCell>
        <mxCell id="tItsWk1MYwFzCwZot_ue-30" style="edgeStyle=orthogonalEdgeStyle;rounded=0;orthogonalLoop=1;jettySize=auto;html=1;exitX=1;exitY=0.5;exitDx=0;exitDy=0;entryX=0;entryY=0.5;entryDx=0;entryDy=0;" edge="1" parent="tItsWk1MYwFzCwZot_ue-20" source="tItsWk1MYwFzCwZot_ue-24" target="tItsWk1MYwFzCwZot_ue-29">
          <mxGeometry relative="1" as="geometry" />
        </mxCell>
        <mxCell id="tItsWk1MYwFzCwZot_ue-31" style="edgeStyle=orthogonalEdgeStyle;rounded=0;orthogonalLoop=1;jettySize=auto;html=1;exitX=0.5;exitY=1;exitDx=0;exitDy=0;entryX=1;entryY=0.5;entryDx=0;entryDy=0;" edge="1" parent="tItsWk1MYwFzCwZot_ue-20" source="tItsWk1MYwFzCwZot_ue-29" target="tItsWk1MYwFzCwZot_ue-25">
          <mxGeometry relative="1" as="geometry" />
        </mxCell>
        <mxCell id="tItsWk1MYwFzCwZot_ue-32" style="edgeStyle=orthogonalEdgeStyle;rounded=0;orthogonalLoop=1;jettySize=auto;html=1;exitX=0;exitY=0.5;exitDx=0;exitDy=0;entryX=1;entryY=0.5;entryDx=0;entryDy=0;" edge="1" parent="tItsWk1MYwFzCwZot_ue-20" source="tItsWk1MYwFzCwZot_ue-26" target="tItsWk1MYwFzCwZot_ue-22">
          <mxGeometry relative="1" as="geometry" />
        </mxCell>
        <mxCell id="tItsWk1MYwFzCwZot_ue-33" value="" style="shape=tableRow;horizontal=0;swimlaneHead=0;swimlaneBody=0;top=0;left=0;strokeColor=inherit;bottom=0;right=0;dropTarget=0;fontStyle=1;fillColor=none;points=[[0,0.5],[1,0.5]];portConstraint=eastwest;startSize=40;collapsible=0;recursiveResize=0;expand=0;fontSize=16;" vertex="1" parent="tItsWk1MYwFzCwZot_ue-1">
          <mxGeometry y="819" width="1110" height="494" as="geometry" />
        </mxCell>
        <mxCell id="tItsWk1MYwFzCwZot_ue-34" value="" style="swimlane;swimlaneHead=0;swimlaneBody=0;fontStyle=0;connectable=0;strokeColor=inherit;fillColor=none;startSize=0;collapsible=0;recursiveResize=0;expand=0;fontSize=16;" vertex="1" parent="tItsWk1MYwFzCwZot_ue-33">
          <mxGeometry x="40" width="357" height="494" as="geometry">
            <mxRectangle width="357" height="494" as="alternateBounds" />
          </mxGeometry>
        </mxCell>
        <mxCell id="tItsWk1MYwFzCwZot_ue-35" value="" style="ellipse;html=1;shape=endState;fillColor=#FF0000;fontColor=#ffffff;strokeColor=#FF0000;" vertex="1" parent="tItsWk1MYwFzCwZot_ue-34">
          <mxGeometry x="148" y="405" width="30" height="30" as="geometry" />
        </mxCell>
        <mxCell id="tItsWk1MYwFzCwZot_ue-36" value="Собеседование успешно?" style="text;html=1;align=center;verticalAlign=middle;resizable=0;points=[];autosize=1;strokeColor=none;fillColor=none;" vertex="1" parent="tItsWk1MYwFzCwZot_ue-34">
          <mxGeometry x="92" y="36" width="164" height="26" as="geometry" />
        </mxCell>
        <mxCell id="tItsWk1MYwFzCwZot_ue-37" value="" style="rhombus;fillColor=#FF0000;strokeColor=#FF0000;fontColor=#ffffff;" vertex="1" parent="tItsWk1MYwFzCwZot_ue-34">
          <mxGeometry x="148" y="65.5" width="30" height="30" as="geometry" />
        </mxCell>
        <mxCell id="tItsWk1MYwFzCwZot_ue-38" value="&lt;font style=&quot;font-size: 14px;&quot;&gt;&lt;b&gt;Добавление сотрудника&lt;/b&gt;&lt;/font&gt;" style="rounded=1;whiteSpace=wrap;html=1;" vertex="1" parent="tItsWk1MYwFzCwZot_ue-34">
          <mxGeometry x="95" y="209" width="147" height="67" as="geometry" />
        </mxCell>
        <mxCell id="tItsWk1MYwFzCwZot_ue-39" value="" style="swimlane;swimlaneHead=0;swimlaneBody=0;fontStyle=0;connectable=0;strokeColor=inherit;fillColor=none;startSize=0;collapsible=0;recursiveResize=0;expand=0;fontSize=16;" vertex="1" parent="tItsWk1MYwFzCwZot_ue-33">
          <mxGeometry x="397" width="436" height="494" as="geometry">
            <mxRectangle width="436" height="494" as="alternateBounds" />
          </mxGeometry>
        </mxCell>
        <mxCell id="tItsWk1MYwFzCwZot_ue-40" value="" style="rhombus;fillColor=#FF0000;strokeColor=#FF0000;fontColor=#ffffff;" vertex="1" parent="tItsWk1MYwFzCwZot_ue-39">
          <mxGeometry x="114" y="-168" width="30" height="30" as="geometry" />
        </mxCell>
        <mxCell id="tItsWk1MYwFzCwZot_ue-41" value="Анкета подходит?" style="text;html=1;align=center;verticalAlign=middle;resizable=0;points=[];autosize=1;strokeColor=none;fillColor=none;" vertex="1" parent="tItsWk1MYwFzCwZot_ue-39">
          <mxGeometry x="70" y="-198" width="118" height="26" as="geometry" />
        </mxCell>
        <mxCell id="tItsWk1MYwFzCwZot_ue-42" value="&lt;font style=&quot;font-size: 14px;&quot;&gt;&lt;b&gt;Предложение оффера&lt;/b&gt;&lt;/font&gt;" style="rounded=1;whiteSpace=wrap;html=1;" vertex="1" parent="tItsWk1MYwFzCwZot_ue-39">
          <mxGeometry x="55.5" y="25" width="147" height="67" as="geometry" />
        </mxCell>
        <mxCell id="tItsWk1MYwFzCwZot_ue-43" value="&lt;font style=&quot;font-size: 14px;&quot;&gt;&lt;b&gt;Уведомление об отказе&lt;/b&gt;&lt;/font&gt;" style="rounded=1;whiteSpace=wrap;html=1;" vertex="1" parent="tItsWk1MYwFzCwZot_ue-39">
          <mxGeometry x="55.5" y="120" width="147" height="67" as="geometry" />
        </mxCell>
        <mxCell id="tItsWk1MYwFzCwZot_ue-44" value="&lt;font style=&quot;font-size: 14px;&quot;&gt;&lt;b&gt;Уведомление IT-отдела&lt;/b&gt;&lt;/font&gt;" style="rounded=1;whiteSpace=wrap;html=1;" vertex="1" parent="tItsWk1MYwFzCwZot_ue-39">
          <mxGeometry x="55.5" y="284" width="147" height="67" as="geometry" />
        </mxCell>
        <mxCell id="tItsWk1MYwFzCwZot_ue-45" value="" style="swimlane;swimlaneHead=0;swimlaneBody=0;fontStyle=0;connectable=0;strokeColor=inherit;fillColor=none;startSize=0;collapsible=0;recursiveResize=0;expand=0;fontSize=16;" vertex="1" parent="tItsWk1MYwFzCwZot_ue-33">
          <mxGeometry x="833" width="277" height="494" as="geometry">
            <mxRectangle width="277" height="494" as="alternateBounds" />
          </mxGeometry>
        </mxCell>
        <mxCell id="tItsWk1MYwFzCwZot_ue-46" value="&lt;font style=&quot;font-size: 14px;&quot;&gt;&lt;b&gt;Подтверждение оффера&lt;/b&gt;&lt;/font&gt;" style="rounded=1;whiteSpace=wrap;html=1;" vertex="1" parent="tItsWk1MYwFzCwZot_ue-45">
          <mxGeometry x="65" y="25" width="147" height="67" as="geometry" />
        </mxCell>
        <mxCell id="tItsWk1MYwFzCwZot_ue-47" style="edgeStyle=orthogonalEdgeStyle;rounded=0;orthogonalLoop=1;jettySize=auto;html=1;exitX=1;exitY=0.5;exitDx=0;exitDy=0;entryX=0;entryY=0.5;entryDx=0;entryDy=0;" edge="1" parent="tItsWk1MYwFzCwZot_ue-33" source="tItsWk1MYwFzCwZot_ue-37" target="tItsWk1MYwFzCwZot_ue-42">
          <mxGeometry relative="1" as="geometry" />
        </mxCell>
        <mxCell id="tItsWk1MYwFzCwZot_ue-48" value="ДА" style="edgeLabel;html=1;align=center;verticalAlign=middle;resizable=0;points=[];" vertex="1" connectable="0" parent="tItsWk1MYwFzCwZot_ue-47">
          <mxGeometry x="0.7247" relative="1" as="geometry">
            <mxPoint as="offset" />
          </mxGeometry>
        </mxCell>
        <mxCell id="tItsWk1MYwFzCwZot_ue-49" style="edgeStyle=orthogonalEdgeStyle;rounded=0;orthogonalLoop=1;jettySize=auto;html=1;exitX=1;exitY=0.5;exitDx=0;exitDy=0;entryX=0;entryY=0.5;entryDx=0;entryDy=0;" edge="1" parent="tItsWk1MYwFzCwZot_ue-33" source="tItsWk1MYwFzCwZot_ue-37" target="tItsWk1MYwFzCwZot_ue-43">
          <mxGeometry relative="1" as="geometry" />
        </mxCell>
        <mxCell id="tItsWk1MYwFzCwZot_ue-50" value="НЕТ" style="edgeLabel;html=1;align=center;verticalAlign=middle;resizable=0;points=[];" vertex="1" connectable="0" parent="tItsWk1MYwFzCwZot_ue-49">
          <mxGeometry x="0.7933" relative="1" as="geometry">
            <mxPoint as="offset" />
          </mxGeometry>
        </mxCell>
        <mxCell id="tItsWk1MYwFzCwZot_ue-51" style="edgeStyle=orthogonalEdgeStyle;rounded=0;orthogonalLoop=1;jettySize=auto;html=1;exitX=1;exitY=0.5;exitDx=0;exitDy=0;entryX=0;entryY=0.5;entryDx=0;entryDy=0;" edge="1" parent="tItsWk1MYwFzCwZot_ue-33" source="tItsWk1MYwFzCwZot_ue-42" target="tItsWk1MYwFzCwZot_ue-46">
          <mxGeometry relative="1" as="geometry" />
        </mxCell>
        <mxCell id="tItsWk1MYwFzCwZot_ue-52" style="edgeStyle=orthogonalEdgeStyle;rounded=0;orthogonalLoop=1;jettySize=auto;html=1;exitX=0.5;exitY=1;exitDx=0;exitDy=0;entryX=1;entryY=0.5;entryDx=0;entryDy=0;" edge="1" parent="tItsWk1MYwFzCwZot_ue-33" source="tItsWk1MYwFzCwZot_ue-46" target="tItsWk1MYwFzCwZot_ue-38">
          <mxGeometry relative="1" as="geometry" />
        </mxCell>
        <mxCell id="tItsWk1MYwFzCwZot_ue-53" style="edgeStyle=orthogonalEdgeStyle;rounded=0;orthogonalLoop=1;jettySize=auto;html=1;exitX=0.5;exitY=1;exitDx=0;exitDy=0;entryX=0;entryY=0.5;entryDx=0;entryDy=0;" edge="1" parent="tItsWk1MYwFzCwZot_ue-33" source="tItsWk1MYwFzCwZot_ue-38" target="tItsWk1MYwFzCwZot_ue-44">
          <mxGeometry relative="1" as="geometry" />
        </mxCell>
        <mxCell id="tItsWk1MYwFzCwZot_ue-54" style="edgeStyle=orthogonalEdgeStyle;rounded=0;orthogonalLoop=1;jettySize=auto;html=1;exitX=0.5;exitY=1;exitDx=0;exitDy=0;entryX=1;entryY=0.5;entryDx=0;entryDy=0;" edge="1" parent="tItsWk1MYwFzCwZot_ue-33" source="tItsWk1MYwFzCwZot_ue-44" target="tItsWk1MYwFzCwZot_ue-35">
          <mxGeometry relative="1" as="geometry" />
        </mxCell>
        <mxCell id="tItsWk1MYwFzCwZot_ue-55" style="edgeStyle=orthogonalEdgeStyle;rounded=0;orthogonalLoop=1;jettySize=auto;html=1;exitX=0;exitY=0.75;exitDx=0;exitDy=0;entryX=0;entryY=0.5;entryDx=0;entryDy=0;" edge="1" parent="tItsWk1MYwFzCwZot_ue-33" source="tItsWk1MYwFzCwZot_ue-43" target="tItsWk1MYwFzCwZot_ue-35">
          <mxGeometry relative="1" as="geometry">
            <Array as="points">
              <mxPoint x="87" y="170" />
              <mxPoint x="87" y="420" />
            </Array>
          </mxGeometry>
        </mxCell>
        <mxCell id="tItsWk1MYwFzCwZot_ue-56" style="edgeStyle=orthogonalEdgeStyle;rounded=0;orthogonalLoop=1;jettySize=auto;html=1;exitX=0.5;exitY=1;exitDx=0;exitDy=0;entryX=0.5;entryY=0;entryDx=0;entryDy=0;" edge="1" parent="tItsWk1MYwFzCwZot_ue-1" source="tItsWk1MYwFzCwZot_ue-14" target="tItsWk1MYwFzCwZot_ue-24">
          <mxGeometry relative="1" as="geometry" />
        </mxCell>
        <mxCell id="tItsWk1MYwFzCwZot_ue-57" style="edgeStyle=orthogonalEdgeStyle;rounded=0;orthogonalLoop=1;jettySize=auto;html=1;exitX=0.5;exitY=1;exitDx=0;exitDy=0;entryX=0.482;entryY=0.176;entryDx=0;entryDy=0;entryPerimeter=0;" edge="1" parent="tItsWk1MYwFzCwZot_ue-1" source="tItsWk1MYwFzCwZot_ue-25" target="tItsWk1MYwFzCwZot_ue-41">
          <mxGeometry relative="1" as="geometry" />
        </mxCell>
        <mxCell id="tItsWk1MYwFzCwZot_ue-58" style="rounded=0;orthogonalLoop=1;jettySize=auto;html=1;exitX=0.5;exitY=1;exitDx=0;exitDy=0;entryX=0.5;entryY=0;entryDx=0;entryDy=0;" edge="1" parent="tItsWk1MYwFzCwZot_ue-1" source="tItsWk1MYwFzCwZot_ue-40" target="tItsWk1MYwFzCwZot_ue-26">
          <mxGeometry relative="1" as="geometry" />
        </mxCell>
        <mxCell id="tItsWk1MYwFzCwZot_ue-59" value="ДА" style="edgeLabel;html=1;align=center;verticalAlign=middle;resizable=0;points=[];" vertex="1" connectable="0" parent="tItsWk1MYwFzCwZot_ue-58">
          <mxGeometry x="-0.2093" y="-1" relative="1" as="geometry">
            <mxPoint as="offset" />
          </mxGeometry>
        </mxCell>
        <mxCell id="tItsWk1MYwFzCwZot_ue-60" style="edgeStyle=orthogonalEdgeStyle;rounded=0;orthogonalLoop=1;jettySize=auto;html=1;exitX=1;exitY=0.5;exitDx=0;exitDy=0;entryX=0.5;entryY=0;entryDx=0;entryDy=0;" edge="1" parent="tItsWk1MYwFzCwZot_ue-1" source="tItsWk1MYwFzCwZot_ue-40" target="tItsWk1MYwFzCwZot_ue-27">
          <mxGeometry relative="1" as="geometry" />
        </mxCell>
        <mxCell id="tItsWk1MYwFzCwZot_ue-61" value="НЕТ" style="edgeLabel;html=1;align=center;verticalAlign=middle;resizable=0;points=[];" vertex="1" connectable="0" parent="tItsWk1MYwFzCwZot_ue-60">
          <mxGeometry x="0.6823" relative="1" as="geometry">
            <mxPoint as="offset" />
          </mxGeometry>
        </mxCell>
        <mxCell id="tItsWk1MYwFzCwZot_ue-62" style="edgeStyle=orthogonalEdgeStyle;rounded=0;orthogonalLoop=1;jettySize=auto;html=1;exitX=0.5;exitY=1;exitDx=0;exitDy=0;entryX=0.453;entryY=0.095;entryDx=0;entryDy=0;entryPerimeter=0;" edge="1" parent="tItsWk1MYwFzCwZot_ue-1" source="tItsWk1MYwFzCwZot_ue-22" target="tItsWk1MYwFzCwZot_ue-36">
          <mxGeometry relative="1" as="geometry" />
        </mxCell>
        <mxCell id="tItsWk1MYwFzCwZot_ue-63" style="edgeStyle=orthogonalEdgeStyle;rounded=0;orthogonalLoop=1;jettySize=auto;html=1;exitX=0.5;exitY=1;exitDx=0;exitDy=0;entryX=0;entryY=0.5;entryDx=0;entryDy=0;" edge="1" parent="tItsWk1MYwFzCwZot_ue-1" source="tItsWk1MYwFzCwZot_ue-27" target="tItsWk1MYwFzCwZot_ue-35">
          <mxGeometry relative="1" as="geometry">
            <Array as="points">
              <mxPoint x="695" y="805" />
              <mxPoint x="77" y="805" />
              <mxPoint x="77" y="1239" />
            </Array>
          </mxGeometry>
        </mxCell>
      </root>
    </mxGraphModel>
  </diagram>
  <diagram name="Домашнее 2" id="IMt3c3Ca5Qbf5rBfeuTO">
    <mxGraphModel dx="1983" dy="1160" grid="0" gridSize="10" guides="1" tooltips="1" connect="1" arrows="1" fold="1" page="1" pageScale="1" pageWidth="827" pageHeight="1169" math="0" shadow="0">
      <root>
        <mxCell id="0" />
        <mxCell id="1" parent="0" />
        <mxCell id="kV41Gd2uPLbLE5IYKHnM-1" value="Система" style="shape=umlLifeline;perimeter=lifelinePerimeter;whiteSpace=wrap;html=1;container=1;collapsible=0;recursiveResize=0;outlineConnect=0;rounded=1;shadow=0;comic=0;labelBackgroundColor=none;strokeWidth=1;fontFamily=Verdana;fontSize=12;align=center;fillColor=#d5e8d4;strokeColor=#82b366;" vertex="1" parent="1">
          <mxGeometry x="295" y="80" width="100" height="723" as="geometry" />
        </mxCell>
        <mxCell id="kV41Gd2uPLbLE5IYKHnM-2" value="" style="html=1;points=[];perimeter=orthogonalPerimeter;rounded=0;shadow=0;comic=0;labelBackgroundColor=none;strokeWidth=1;fontFamily=Verdana;fontSize=12;align=center;fillColor=#d5e8d4;strokeColor=#82b366;" vertex="1" parent="kV41Gd2uPLbLE5IYKHnM-1">
          <mxGeometry x="45" y="193" width="10" height="110" as="geometry" />
        </mxCell>
        <mxCell id="kV41Gd2uPLbLE5IYKHnM-3" value="Предоставление информации" style="html=1;verticalAlign=bottom;endArrow=block;labelBackgroundColor=none;fontFamily=Verdana;fontSize=12;edgeStyle=elbowEdgeStyle;elbow=vertical;fillColor=#d5e8d4;strokeColor=#82b366;" edge="1" parent="kV41Gd2uPLbLE5IYKHnM-1" target="kV41Gd2uPLbLE5IYKHnM-21">
          <mxGeometry x="0.3179" relative="1" as="geometry">
            <mxPoint x="-105" y="248" as="sourcePoint" />
            <mxPoint x="104" y="248" as="targetPoint" />
            <Array as="points">
              <mxPoint x="60" y="248" />
            </Array>
            <mxPoint as="offset" />
          </mxGeometry>
        </mxCell>
        <mxCell id="kV41Gd2uPLbLE5IYKHnM-4" value="отказано" style="html=1;verticalAlign=bottom;endArrow=open;dashed=1;endSize=8;labelBackgroundColor=none;fontFamily=Verdana;fontSize=12;edgeStyle=elbowEdgeStyle;elbow=vertical;fillColor=#d5e8d4;strokeColor=#82b366;" edge="1" parent="kV41Gd2uPLbLE5IYKHnM-1" target="kV41Gd2uPLbLE5IYKHnM-21">
          <mxGeometry relative="1" as="geometry">
            <mxPoint x="-85" y="218" as="targetPoint" />
            <Array as="points">
              <mxPoint x="-10" y="218" />
              <mxPoint x="20" y="218" />
            </Array>
            <mxPoint x="45" y="218" as="sourcePoint" />
          </mxGeometry>
        </mxCell>
        <mxCell id="kV41Gd2uPLbLE5IYKHnM-5" value="" style="html=1;points=[];perimeter=orthogonalPerimeter;rounded=0;shadow=0;comic=0;labelBackgroundColor=none;strokeWidth=1;fontFamily=Verdana;fontSize=12;align=center;fillColor=#d5e8d4;strokeColor=#82b366;" vertex="1" parent="kV41Gd2uPLbLE5IYKHnM-1">
          <mxGeometry x="45" y="345" width="10" height="119" as="geometry" />
        </mxCell>
        <mxCell id="kV41Gd2uPLbLE5IYKHnM-6" value="Клиент подтверждает выбор" style="html=1;verticalAlign=bottom;endArrow=block;labelBackgroundColor=none;fontFamily=Verdana;fontSize=12;edgeStyle=elbowEdgeStyle;elbow=vertical;fillColor=#d5e8d4;strokeColor=#82b366;" edge="1" parent="kV41Gd2uPLbLE5IYKHnM-1" source="kV41Gd2uPLbLE5IYKHnM-21">
          <mxGeometry relative="1" as="geometry">
            <mxPoint x="-255.5" y="359.26" as="sourcePoint" />
            <mxPoint x="55" y="359.47739130434786" as="targetPoint" />
            <Array as="points">
              <mxPoint x="59" y="359" />
            </Array>
          </mxGeometry>
        </mxCell>
        <mxCell id="kV41Gd2uPLbLE5IYKHnM-7" value="&lt;div&gt;Проверка доступности&amp;nbsp;&lt;/div&gt;&lt;div&gt;площадки&lt;/div&gt;" style="html=1;verticalAlign=bottom;endArrow=block;labelBackgroundColor=none;fontFamily=Verdana;fontSize=12;elbow=vertical;edgeStyle=orthogonalEdgeStyle;curved=1;entryX=1;entryY=0.286;entryPerimeter=0;exitX=1.038;exitY=0.345;exitPerimeter=0;fillColor=#d5e8d4;strokeColor=#82b366;" edge="1" parent="kV41Gd2uPLbLE5IYKHnM-1">
          <mxGeometry x="0.3005" y="38" relative="1" as="geometry">
            <mxPoint x="55" y="220" as="sourcePoint" />
            <mxPoint x="60" y="258" as="targetPoint" />
            <Array as="points">
              <mxPoint x="110" y="220" />
              <mxPoint x="110" y="258" />
            </Array>
            <mxPoint x="36" y="-26" as="offset" />
          </mxGeometry>
        </mxCell>
        <mxCell id="kV41Gd2uPLbLE5IYKHnM-8" value="Запрос на бронирование" style="html=1;verticalAlign=bottom;endArrow=block;entryX=0;entryY=0;labelBackgroundColor=none;fontFamily=Verdana;fontSize=12;edgeStyle=elbowEdgeStyle;elbow=vertical;fillColor=#d5e8d4;strokeColor=#82b366;" edge="1" parent="kV41Gd2uPLbLE5IYKHnM-1">
          <mxGeometry relative="1" as="geometry">
            <mxPoint x="-261" y="193.42105263157896" as="sourcePoint" />
            <mxPoint x="45" y="193.00000000000034" as="targetPoint" />
          </mxGeometry>
        </mxCell>
        <mxCell id="kV41Gd2uPLbLE5IYKHnM-9" value="" style="html=1;points=[];perimeter=orthogonalPerimeter;rounded=0;shadow=0;comic=0;labelBackgroundColor=none;strokeWidth=1;fontFamily=Verdana;fontSize=12;align=center;fillColor=#d5e8d4;strokeColor=#82b366;" vertex="1" parent="kV41Gd2uPLbLE5IYKHnM-1">
          <mxGeometry x="45" y="59" width="10" height="110" as="geometry" />
        </mxCell>
        <mxCell id="kV41Gd2uPLbLE5IYKHnM-10" value="" style="html=1;points=[];perimeter=orthogonalPerimeter;rounded=0;shadow=0;comic=0;labelBackgroundColor=none;strokeWidth=1;fontFamily=Verdana;fontSize=12;align=center;fillColor=#d5e8d4;strokeColor=#82b366;" vertex="1" parent="kV41Gd2uPLbLE5IYKHnM-1">
          <mxGeometry x="45" y="506" width="10" height="134" as="geometry" />
        </mxCell>
        <mxCell id="kV41Gd2uPLbLE5IYKHnM-11" value="Платежный шлюз" style="shape=umlLifeline;perimeter=lifelinePerimeter;whiteSpace=wrap;html=1;container=1;collapsible=0;recursiveResize=0;outlineConnect=0;rounded=1;shadow=0;comic=0;labelBackgroundColor=none;strokeWidth=1;fontFamily=Verdana;fontSize=12;align=center;fillColor=#d5e8d4;strokeColor=#82b366;" vertex="1" parent="1">
          <mxGeometry x="572" y="80" width="100" height="721" as="geometry" />
        </mxCell>
        <mxCell id="kV41Gd2uPLbLE5IYKHnM-12" value="" style="html=1;points=[];perimeter=orthogonalPerimeter;rounded=0;shadow=0;comic=0;labelBackgroundColor=none;strokeWidth=1;fontFamily=Verdana;fontSize=12;align=center;fillColor=#d5e8d4;strokeColor=#82b366;" vertex="1" parent="kV41Gd2uPLbLE5IYKHnM-11">
          <mxGeometry x="45" y="359" width="10" height="119" as="geometry" />
        </mxCell>
        <mxCell id="kV41Gd2uPLbLE5IYKHnM-13" value="Платеж успешен?" style="html=1;verticalAlign=bottom;endArrow=block;labelBackgroundColor=none;fontFamily=Verdana;fontSize=12;elbow=vertical;edgeStyle=orthogonalEdgeStyle;curved=1;entryX=1;entryY=0.286;entryPerimeter=0;exitX=1.038;exitY=0.345;exitPerimeter=0;fillColor=#d5e8d4;strokeColor=#82b366;" edge="1" parent="kV41Gd2uPLbLE5IYKHnM-11">
          <mxGeometry x="0.3005" y="38" relative="1" as="geometry">
            <mxPoint x="55" y="367" as="sourcePoint" />
            <mxPoint x="60" y="405" as="targetPoint" />
            <Array as="points">
              <mxPoint x="110" y="367" />
              <mxPoint x="110" y="405" />
            </Array>
            <mxPoint x="36" y="-26" as="offset" />
          </mxGeometry>
        </mxCell>
        <mxCell id="kV41Gd2uPLbLE5IYKHnM-14" value="Администратор площадки" style="shape=umlLifeline;perimeter=lifelinePerimeter;whiteSpace=wrap;html=1;container=1;collapsible=0;recursiveResize=0;outlineConnect=0;rounded=1;shadow=0;comic=0;labelBackgroundColor=none;strokeWidth=1;fontFamily=Verdana;fontSize=12;align=center;fillColor=#d5e8d4;strokeColor=#82b366;" vertex="1" parent="1">
          <mxGeometry x="842" y="80" width="100" height="722" as="geometry" />
        </mxCell>
        <mxCell id="kV41Gd2uPLbLE5IYKHnM-15" value="" style="html=1;points=[];perimeter=orthogonalPerimeter;rounded=0;shadow=0;comic=0;labelBackgroundColor=none;strokeWidth=1;fontFamily=Verdana;fontSize=12;align=center;fillColor=#d5e8d4;strokeColor=#82b366;" vertex="1" parent="kV41Gd2uPLbLE5IYKHnM-14">
          <mxGeometry x="45" y="59" width="10" height="110" as="geometry" />
        </mxCell>
        <mxCell id="kV41Gd2uPLbLE5IYKHnM-16" value="" style="html=1;points=[];perimeter=orthogonalPerimeter;rounded=0;shadow=0;comic=0;labelBackgroundColor=none;strokeWidth=1;fontFamily=Verdana;fontSize=12;align=center;fillColor=#d5e8d4;strokeColor=#82b366;" vertex="1" parent="kV41Gd2uPLbLE5IYKHnM-14">
          <mxGeometry x="45" y="506" width="10" height="105" as="geometry" />
        </mxCell>
        <mxCell id="kV41Gd2uPLbLE5IYKHnM-17" value="Подрядчики" style="shape=umlLifeline;perimeter=lifelinePerimeter;whiteSpace=wrap;html=1;container=1;collapsible=0;recursiveResize=0;outlineConnect=0;rounded=1;shadow=0;comic=0;labelBackgroundColor=none;strokeWidth=1;fontFamily=Verdana;fontSize=12;align=center;fillColor=#d5e8d4;strokeColor=#82b366;" vertex="1" parent="1">
          <mxGeometry x="1053" y="80" width="100" height="716" as="geometry" />
        </mxCell>
        <mxCell id="kV41Gd2uPLbLE5IYKHnM-18" value="" style="html=1;points=[];perimeter=orthogonalPerimeter;rounded=0;shadow=0;comic=0;labelBackgroundColor=none;strokeWidth=1;fontFamily=Verdana;fontSize=12;align=center;fillColor=#d5e8d4;strokeColor=#82b366;" vertex="1" parent="kV41Gd2uPLbLE5IYKHnM-17">
          <mxGeometry x="45" y="506" width="10" height="112" as="geometry" />
        </mxCell>
        <mxCell id="kV41Gd2uPLbLE5IYKHnM-19" value="Менеджер" style="shape=umlLifeline;perimeter=lifelinePerimeter;whiteSpace=wrap;html=1;container=1;collapsible=0;recursiveResize=0;outlineConnect=0;rounded=1;shadow=0;comic=0;labelBackgroundColor=none;strokeWidth=1;fontFamily=Verdana;fontSize=12;align=center;fillColor=#d5e8d4;strokeColor=#82b366;" vertex="1" parent="1">
          <mxGeometry x="1283" y="80" width="100" height="722" as="geometry" />
        </mxCell>
        <mxCell id="kV41Gd2uPLbLE5IYKHnM-20" value="" style="html=1;points=[];perimeter=orthogonalPerimeter;rounded=0;shadow=0;comic=0;labelBackgroundColor=none;strokeWidth=1;fontFamily=Verdana;fontSize=12;align=center;fillColor=#d5e8d4;strokeColor=#82b366;" vertex="1" parent="kV41Gd2uPLbLE5IYKHnM-19">
          <mxGeometry x="45" y="609" width="10" height="112" as="geometry" />
        </mxCell>
        <mxCell id="kV41Gd2uPLbLE5IYKHnM-21" value="Клиент" style="shape=umlLifeline;perimeter=lifelinePerimeter;whiteSpace=wrap;html=1;container=1;collapsible=0;recursiveResize=0;outlineConnect=0;rounded=1;shadow=0;comic=0;labelBackgroundColor=none;strokeWidth=1;fontFamily=Verdana;fontSize=12;align=center;fillColor=#d5e8d4;strokeColor=#82b366;" vertex="1" parent="1">
          <mxGeometry x="-21" y="80" width="100" height="726" as="geometry" />
        </mxCell>
        <mxCell id="kV41Gd2uPLbLE5IYKHnM-22" value="" style="html=1;points=[];perimeter=orthogonalPerimeter;rounded=0;shadow=0;comic=0;labelBackgroundColor=none;strokeWidth=1;fontFamily=Verdana;fontSize=12;align=center;fillColor=#d5e8d4;strokeColor=#82b366;" vertex="1" parent="kV41Gd2uPLbLE5IYKHnM-21">
          <mxGeometry x="45" y="100" width="10" height="457" as="geometry" />
        </mxCell>
        <mxCell id="kV41Gd2uPLbLE5IYKHnM-23" value="Предложение другой даты или площадки" style="html=1;verticalAlign=bottom;endArrow=block;labelBackgroundColor=none;fontFamily=Verdana;fontSize=12;edgeStyle=elbowEdgeStyle;elbow=vertical;fillColor=#d5e8d4;strokeColor=#82b366;" edge="1" parent="1" target="kV41Gd2uPLbLE5IYKHnM-21">
          <mxGeometry x="-0.7016" relative="1" as="geometry">
            <mxPoint x="101" y="358" as="sourcePoint" />
            <mxPoint x="36" y="358" as="targetPoint" />
            <Array as="points">
              <mxPoint x="348" y="358" />
            </Array>
            <mxPoint as="offset" />
          </mxGeometry>
        </mxCell>
        <mxCell id="kV41Gd2uPLbLE5IYKHnM-24" value="Запрос на предоплату" style="html=1;verticalAlign=bottom;endArrow=block;labelBackgroundColor=none;fontFamily=Verdana;fontSize=12;edgeStyle=elbowEdgeStyle;elbow=vertical;fillColor=#d5e8d4;strokeColor=#82b366;exitX=0.65;exitY=0.605;exitDx=0;exitDy=0;exitPerimeter=0;" edge="1" parent="1">
          <mxGeometry relative="1" as="geometry">
            <mxPoint x="349" y="493.04499999999985" as="sourcePoint" />
            <mxPoint x="624.0000000000002" y="492.99736842105267" as="targetPoint" />
          </mxGeometry>
        </mxCell>
        <mxCell id="kV41Gd2uPLbLE5IYKHnM-25" value="Повторить" style="html=1;verticalAlign=bottom;endArrow=open;dashed=1;endSize=8;labelBackgroundColor=none;fontFamily=Verdana;fontSize=12;edgeStyle=elbowEdgeStyle;elbow=horizontal;fillColor=#d5e8d4;strokeColor=#82b366;" edge="1" parent="1" source="kV41Gd2uPLbLE5IYKHnM-11">
          <mxGeometry relative="1" as="geometry">
            <mxPoint x="343" y="533" as="targetPoint" />
            <Array as="points">
              <mxPoint x="600" y="533" />
              <mxPoint x="630" y="533" />
            </Array>
            <mxPoint x="655" y="533" as="sourcePoint" />
          </mxGeometry>
        </mxCell>
        <mxCell id="kV41Gd2uPLbLE5IYKHnM-26" value="успешно" style="html=1;verticalAlign=bottom;endArrow=block;labelBackgroundColor=none;fontFamily=Verdana;fontSize=12;edgeStyle=elbowEdgeStyle;elbow=vertical;fillColor=#d5e8d4;strokeColor=#82b366;exitX=0.663;exitY=0.129;exitDx=0;exitDy=0;exitPerimeter=0;" edge="1" parent="1" source="kV41Gd2uPLbLE5IYKHnM-12" target="kV41Gd2uPLbLE5IYKHnM-1">
          <mxGeometry relative="1" as="geometry">
            <mxPoint x="359" y="503.04499999999985" as="sourcePoint" />
            <mxPoint x="410" y="444" as="targetPoint" />
          </mxGeometry>
        </mxCell>
        <mxCell id="kV41Gd2uPLbLE5IYKHnM-27" value="Подтверждение бронирования" style="html=1;verticalAlign=bottom;endArrow=block;labelBackgroundColor=none;fontFamily=Verdana;fontSize=12;edgeStyle=elbowEdgeStyle;elbow=vertical;fillColor=#d5e8d4;strokeColor=#82b366;exitX=0.663;exitY=0.129;exitDx=0;exitDy=0;exitPerimeter=0;" edge="1" parent="1">
          <mxGeometry relative="1" as="geometry">
            <mxPoint x="350" y="513.4200000000001" as="sourcePoint" />
            <mxPoint x="32" y="516" as="targetPoint" />
            <Array as="points">
              <mxPoint x="384.45" y="513" />
            </Array>
          </mxGeometry>
        </mxCell>
        <mxCell id="kV41Gd2uPLbLE5IYKHnM-28" value="Уведомление администратору&amp;nbsp;&lt;div&gt;площадки&lt;/div&gt;" style="html=1;verticalAlign=bottom;endArrow=block;labelBackgroundColor=none;fontFamily=Verdana;fontSize=12;edgeStyle=elbowEdgeStyle;elbow=vertical;fillColor=#d5e8d4;strokeColor=#82b366;exitX=1.033;exitY=0.103;exitDx=0;exitDy=0;exitPerimeter=0;" edge="1" parent="1" source="kV41Gd2uPLbLE5IYKHnM-9" target="kV41Gd2uPLbLE5IYKHnM-14">
          <mxGeometry x="-0.4829" y="-38" relative="1" as="geometry">
            <mxPoint x="326" y="147.42105263157896" as="sourcePoint" />
            <mxPoint x="632" y="147.00000000000034" as="targetPoint" />
            <Array as="points">
              <mxPoint x="376" y="150" />
            </Array>
            <mxPoint as="offset" />
          </mxGeometry>
        </mxCell>
        <mxCell id="kV41Gd2uPLbLE5IYKHnM-29" value="Подготовка списка задач" style="html=1;verticalAlign=bottom;endArrow=block;labelBackgroundColor=none;fontFamily=Verdana;fontSize=12;edgeStyle=elbowEdgeStyle;elbow=vertical;fillColor=#d5e8d4;strokeColor=#82b366;" edge="1" parent="1" source="kV41Gd2uPLbLE5IYKHnM-14" target="kV41Gd2uPLbLE5IYKHnM-1">
          <mxGeometry x="-0.5046" y="-4" relative="1" as="geometry">
            <mxPoint x="379" y="206" as="sourcePoint" />
            <mxPoint x="921" y="206" as="targetPoint" />
            <Array as="points">
              <mxPoint x="405" y="206" />
            </Array>
            <mxPoint as="offset" />
          </mxGeometry>
        </mxCell>
        <mxCell id="kV41Gd2uPLbLE5IYKHnM-30" value="Уведомление подрядчиков о задачах" style="html=1;verticalAlign=bottom;endArrow=block;labelBackgroundColor=none;fontFamily=Verdana;fontSize=12;edgeStyle=elbowEdgeStyle;elbow=vertical;fillColor=#d5e8d4;strokeColor=#82b366;entryX=0.549;entryY=0.709;entryDx=0;entryDy=0;entryPerimeter=0;" edge="1" parent="1" source="kV41Gd2uPLbLE5IYKHnM-1" target="kV41Gd2uPLbLE5IYKHnM-17">
          <mxGeometry x="0.0958" y="4" relative="1" as="geometry">
            <mxPoint x="354.0000000000002" y="600" as="sourcePoint" />
            <mxPoint x="1112.25" y="600" as="targetPoint" />
            <mxPoint as="offset" />
          </mxGeometry>
        </mxCell>
        <mxCell id="kV41Gd2uPLbLE5IYKHnM-31" value="Подрядчики подтверждают выполнение задач" style="html=1;verticalAlign=bottom;endArrow=block;labelBackgroundColor=none;fontFamily=Verdana;fontSize=12;edgeStyle=elbowEdgeStyle;elbow=vertical;fillColor=#d5e8d4;strokeColor=#82b366;" edge="1" parent="1">
          <mxGeometry x="0.0406" relative="1" as="geometry">
            <mxPoint x="1102.5" y="654.9999999999998" as="sourcePoint" />
            <mxPoint x="344.2500000000002" y="654.9999999999998" as="targetPoint" />
            <mxPoint as="offset" />
            <Array as="points">
              <mxPoint x="502" y="655" />
            </Array>
          </mxGeometry>
        </mxCell>
        <mxCell id="kV41Gd2uPLbLE5IYKHnM-32" value="Отчет о выполнении задач" style="html=1;verticalAlign=bottom;endArrow=block;labelBackgroundColor=none;fontFamily=Verdana;fontSize=12;edgeStyle=elbowEdgeStyle;elbow=vertical;fillColor=#d5e8d4;strokeColor=#82b366;entryX=0.636;entryY=0.301;entryDx=0;entryDy=0;entryPerimeter=0;" edge="1" parent="1" target="kV41Gd2uPLbLE5IYKHnM-16">
          <mxGeometry x="0.0958" y="4" relative="1" as="geometry">
            <mxPoint x="348" y="618" as="sourcePoint" />
            <mxPoint x="885.4999999999995" y="618.25" as="targetPoint" />
            <mxPoint as="offset" />
          </mxGeometry>
        </mxCell>
        <mxCell id="kV41Gd2uPLbLE5IYKHnM-33" value="Сбор отзывов" style="html=1;verticalAlign=bottom;endArrow=block;labelBackgroundColor=none;fontFamily=Verdana;fontSize=12;edgeStyle=elbowEdgeStyle;elbow=vertical;fillColor=#d5e8d4;strokeColor=#82b366;entryX=0.553;entryY=0.729;entryDx=0;entryDy=0;entryPerimeter=0;" edge="1" parent="1" source="kV41Gd2uPLbLE5IYKHnM-1" target="kV41Gd2uPLbLE5IYKHnM-21">
          <mxGeometry x="0.0855" y="3" relative="1" as="geometry">
            <mxPoint x="118" y="603" as="sourcePoint" />
            <mxPoint x="45" y="603" as="targetPoint" />
            <Array as="points" />
            <mxPoint as="offset" />
          </mxGeometry>
        </mxCell>
        <mxCell id="kV41Gd2uPLbLE5IYKHnM-34" value="Отправка отчета менеджеру" style="html=1;verticalAlign=bottom;endArrow=block;labelBackgroundColor=none;fontFamily=Verdana;fontSize=12;edgeStyle=elbowEdgeStyle;elbow=vertical;fillColor=#d5e8d4;strokeColor=#82b366;" edge="1" parent="1">
          <mxGeometry x="0.0983" y="-27" relative="1" as="geometry">
            <mxPoint x="346" y="702" as="sourcePoint" />
            <mxPoint x="1332.5" y="702.5" as="targetPoint" />
            <mxPoint as="offset" />
          </mxGeometry>
        </mxCell>
        <mxCell id="kV41Gd2uPLbLE5IYKHnM-35" value="END" style="html=1;verticalAlign=bottom;endArrow=open;dashed=1;endSize=8;labelBackgroundColor=none;fontFamily=Verdana;fontSize=12;edgeStyle=elbowEdgeStyle;elbow=vertical;fillColor=#d5e8d4;strokeColor=#82b366;" edge="1" parent="1" source="kV41Gd2uPLbLE5IYKHnM-19">
          <mxGeometry relative="1" as="geometry">
            <mxPoint x="29" y="808" as="targetPoint" />
            <Array as="points">
              <mxPoint x="52" y="802" />
              <mxPoint x="835" y="802" />
            </Array>
            <mxPoint x="860" y="802" as="sourcePoint" />
          </mxGeometry>
        </mxCell>
      </root>
    </mxGraphModel>
  </diagram>
</mxfile>
